%TF.GenerationSoftware,KiCad,Pcbnew,(6.0.10)*%
%TF.CreationDate,2023-02-17T15:23:00-08:00*%
%TF.ProjectId,Exercise 2 lab 6,45786572-6369-4736-9520-32206c616220,rev?*%
%TF.SameCoordinates,Original*%
%TF.FileFunction,Copper,L2,Bot*%
%TF.FilePolarity,Positive*%
%FSLAX46Y46*%
G04 Gerber Fmt 4.6, Leading zero omitted, Abs format (unit mm)*
G04 Created by KiCad (PCBNEW (6.0.10)) date 2023-02-17 15:23:00*
%MOMM*%
%LPD*%
G01*
G04 APERTURE LIST*
%TA.AperFunction,ComponentPad*%
%ADD10R,3.000000X3.000000*%
%TD*%
%TA.AperFunction,ComponentPad*%
%ADD11C,3.000000*%
%TD*%
%TA.AperFunction,ViaPad*%
%ADD12C,0.800000*%
%TD*%
%TA.AperFunction,Conductor*%
%ADD13C,0.250000*%
%TD*%
G04 APERTURE END LIST*
D10*
%TO.P,J1,1,Pin_1*%
%TO.N,+9V*%
X119380000Y-58420000D03*
D11*
%TO.P,J1,2,Pin_2*%
%TO.N,GND*%
X124460000Y-58420000D03*
%TD*%
D12*
%TO.N,/pin_2*%
X111760000Y-99060000D03*
X101600000Y-99060000D03*
%TO.N,Net-(C2-Pad1)*%
X111760000Y-119380000D03*
X121920000Y-101600000D03*
%TO.N,+9V*%
X124460000Y-96520000D03*
X108495500Y-104140000D03*
X116840000Y-93980000D03*
X111760000Y-104140000D03*
X134620000Y-78740000D03*
%TO.N,/pin_7*%
X116840000Y-91440000D03*
X104140000Y-83820000D03*
%TO.N,/pin_3*%
X124460000Y-104140000D03*
X111760000Y-101600000D03*
%TD*%
D13*
%TO.N,/pin_2*%
X101600000Y-99060000D02*
X111760000Y-99060000D01*
%TO.N,Net-(C2-Pad1)*%
X125185000Y-105955000D02*
X125185000Y-102325000D01*
X125185000Y-102325000D02*
X124460000Y-101600000D01*
X111760000Y-119380000D02*
X125185000Y-105955000D01*
X124460000Y-101600000D02*
X121920000Y-101600000D01*
%TO.N,+9V*%
X108495500Y-104140000D02*
X111760000Y-104140000D01*
X119380000Y-93980000D02*
X116840000Y-93980000D01*
X134620000Y-78740000D02*
X119380000Y-93980000D01*
X121920000Y-96520000D02*
X119380000Y-93980000D01*
X124460000Y-96520000D02*
X121920000Y-96520000D01*
%TO.N,/pin_7*%
X116840000Y-91440000D02*
X109220000Y-83820000D01*
X109220000Y-83820000D02*
X104140000Y-83820000D01*
%TO.N,/pin_3*%
X114300000Y-104140000D02*
X111760000Y-101600000D01*
X124460000Y-104140000D02*
X114300000Y-104140000D01*
%TD*%
M02*
