%TF.GenerationSoftware,KiCad,Pcbnew,(6.0.10)*%
%TF.CreationDate,2023-02-17T15:23:00-08:00*%
%TF.ProjectId,Exercise 2 lab 6,45786572-6369-4736-9520-32206c616220,rev?*%
%TF.SameCoordinates,Original*%
%TF.FileFunction,Copper,L1,Top*%
%TF.FilePolarity,Positive*%
%FSLAX46Y46*%
G04 Gerber Fmt 4.6, Leading zero omitted, Abs format (unit mm)*
G04 Created by KiCad (PCBNEW (6.0.10)) date 2023-02-17 15:23:00*
%MOMM*%
%LPD*%
G01*
G04 APERTURE LIST*
G04 Aperture macros list*
%AMRoundRect*
0 Rectangle with rounded corners*
0 $1 Rounding radius*
0 $2 $3 $4 $5 $6 $7 $8 $9 X,Y pos of 4 corners*
0 Add a 4 corners polygon primitive as box body*
4,1,4,$2,$3,$4,$5,$6,$7,$8,$9,$2,$3,0*
0 Add four circle primitives for the rounded corners*
1,1,$1+$1,$2,$3*
1,1,$1+$1,$4,$5*
1,1,$1+$1,$6,$7*
1,1,$1+$1,$8,$9*
0 Add four rect primitives between the rounded corners*
20,1,$1+$1,$2,$3,$4,$5,0*
20,1,$1+$1,$4,$5,$6,$7,0*
20,1,$1+$1,$6,$7,$8,$9,0*
20,1,$1+$1,$8,$9,$2,$3,0*%
G04 Aperture macros list end*
%TA.AperFunction,SMDPad,CuDef*%
%ADD10RoundRect,0.250001X-0.462499X-0.624999X0.462499X-0.624999X0.462499X0.624999X-0.462499X0.624999X0*%
%TD*%
%TA.AperFunction,SMDPad,CuDef*%
%ADD11RoundRect,0.250000X-0.350000X-0.450000X0.350000X-0.450000X0.350000X0.450000X-0.350000X0.450000X0*%
%TD*%
%TA.AperFunction,SMDPad,CuDef*%
%ADD12RoundRect,0.250000X-0.537500X-0.425000X0.537500X-0.425000X0.537500X0.425000X-0.537500X0.425000X0*%
%TD*%
%TA.AperFunction,ComponentPad*%
%ADD13R,3.000000X3.000000*%
%TD*%
%TA.AperFunction,ComponentPad*%
%ADD14C,3.000000*%
%TD*%
%TA.AperFunction,SMDPad,CuDef*%
%ADD15RoundRect,0.250000X0.475000X-0.337500X0.475000X0.337500X-0.475000X0.337500X-0.475000X-0.337500X0*%
%TD*%
%TA.AperFunction,SMDPad,CuDef*%
%ADD16RoundRect,0.150000X-0.825000X-0.150000X0.825000X-0.150000X0.825000X0.150000X-0.825000X0.150000X0*%
%TD*%
%TA.AperFunction,SMDPad,CuDef*%
%ADD17R,2.290000X3.000000*%
%TD*%
%TA.AperFunction,ViaPad*%
%ADD18C,0.800000*%
%TD*%
%TA.AperFunction,Conductor*%
%ADD19C,0.250000*%
%TD*%
G04 APERTURE END LIST*
D10*
%TO.P,D1,1,K*%
%TO.N,Net-(D1-Pad1)*%
X132902500Y-73660000D03*
%TO.P,D1,2,A*%
%TO.N,+9V*%
X135877500Y-73660000D03*
%TD*%
%TO.P,D2,1,K*%
%TO.N,GND*%
X134420000Y-121920000D03*
%TO.P,D2,2,A*%
%TO.N,Net-(D2-Pad2)*%
X137395000Y-121920000D03*
%TD*%
D11*
%TO.P,R2,1*%
%TO.N,/pin_7*%
X92980000Y-101600000D03*
%TO.P,R2,2*%
%TO.N,/pin_2*%
X94980000Y-101600000D03*
%TD*%
D12*
%TO.P,C1,1*%
%TO.N,/pin_2*%
X92542500Y-119380000D03*
%TO.P,C1,2*%
%TO.N,GND*%
X95417500Y-119380000D03*
%TD*%
D11*
%TO.P,R4,1*%
%TO.N,/pin_3*%
X133620000Y-104140000D03*
%TO.P,R4,2*%
%TO.N,Net-(D2-Pad2)*%
X135620000Y-104140000D03*
%TD*%
D13*
%TO.P,J1,1,Pin_1*%
%TO.N,+9V*%
X119380000Y-58420000D03*
D14*
%TO.P,J1,2,Pin_2*%
%TO.N,GND*%
X124460000Y-58420000D03*
%TD*%
D15*
%TO.P,C2,1*%
%TO.N,Net-(C2-Pad1)*%
X109220000Y-115337500D03*
%TO.P,C2,2*%
%TO.N,GND*%
X109220000Y-113262500D03*
%TD*%
D16*
%TO.P,U1,1,GND*%
%TO.N,GND*%
X114365000Y-97155000D03*
%TO.P,U1,2,TR*%
%TO.N,/pin_2*%
X114365000Y-98425000D03*
%TO.P,U1,3,Q*%
%TO.N,/pin_3*%
X114365000Y-99695000D03*
%TO.P,U1,4,R*%
%TO.N,+9V*%
X114365000Y-100965000D03*
%TO.P,U1,5,CV*%
%TO.N,Net-(C2-Pad1)*%
X119315000Y-100965000D03*
%TO.P,U1,6,THR*%
%TO.N,/pin_2*%
X119315000Y-99695000D03*
%TO.P,U1,7,DIS*%
%TO.N,/pin_7*%
X119315000Y-98425000D03*
%TO.P,U1,8,VCC*%
%TO.N,+9V*%
X119315000Y-97155000D03*
D17*
%TO.P,U1,9*%
%TO.N,N/C*%
X116840000Y-99060000D03*
%TD*%
D11*
%TO.P,R3,1*%
%TO.N,Net-(D1-Pad1)*%
X133620000Y-91440000D03*
%TO.P,R3,2*%
%TO.N,/pin_3*%
X135620000Y-91440000D03*
%TD*%
%TO.P,R1,1*%
%TO.N,+9V*%
X92980000Y-81280000D03*
%TO.P,R1,2*%
%TO.N,/pin_7*%
X94980000Y-81280000D03*
%TD*%
D18*
%TO.N,/pin_2*%
X111760000Y-99060000D03*
X101600000Y-99060000D03*
%TO.N,Net-(C2-Pad1)*%
X111760000Y-119380000D03*
X121920000Y-101600000D03*
%TO.N,+9V*%
X124460000Y-96520000D03*
X108495500Y-104140000D03*
X116840000Y-93980000D03*
X111760000Y-104140000D03*
X134620000Y-78740000D03*
%TO.N,/pin_7*%
X116840000Y-91440000D03*
X104140000Y-83820000D03*
%TO.N,/pin_3*%
X124460000Y-104140000D03*
X111760000Y-101600000D03*
%TD*%
D19*
%TO.N,/pin_2*%
X111035000Y-99785000D02*
X111760000Y-99060000D01*
X111035000Y-104440305D02*
X111035000Y-99785000D01*
X113274695Y-106680000D02*
X111035000Y-104440305D01*
X123581701Y-101600000D02*
X118501701Y-106680000D01*
X124460000Y-101600000D02*
X123581701Y-101600000D01*
X129540000Y-96520000D02*
X124460000Y-101600000D01*
X127000000Y-93980000D02*
X129540000Y-96520000D01*
X118501701Y-106680000D02*
X113274695Y-106680000D01*
X125406751Y-93980000D02*
X127000000Y-93980000D01*
X119315000Y-99695000D02*
X119691751Y-99695000D01*
X119691751Y-99695000D02*
X125406751Y-93980000D01*
%TO.N,/pin_7*%
X91440000Y-81206827D02*
X91440000Y-100060000D01*
X92391827Y-80255000D02*
X91440000Y-81206827D01*
X93955000Y-80255000D02*
X92391827Y-80255000D01*
X94980000Y-81280000D02*
X93955000Y-80255000D01*
X91440000Y-100060000D02*
X92980000Y-101600000D01*
%TO.N,/pin_2*%
X94980000Y-101600000D02*
X99060000Y-101600000D01*
X92542500Y-119380000D02*
X92542500Y-104037500D01*
X99060000Y-101600000D02*
X101600000Y-99060000D01*
X92542500Y-104037500D02*
X94980000Y-101600000D01*
X113730000Y-99060000D02*
X114365000Y-98425000D01*
X111760000Y-99060000D02*
X113730000Y-99060000D01*
%TO.N,GND*%
X114365000Y-59785000D02*
X117555000Y-56595000D01*
X122635000Y-56595000D02*
X117555000Y-56595000D01*
X101535000Y-113262500D02*
X95417500Y-119380000D01*
X117555000Y-56595000D02*
X109220000Y-64930000D01*
X134420000Y-121920000D02*
X117877500Y-121920000D01*
X114365000Y-97155000D02*
X114365000Y-59785000D01*
X109220000Y-64930000D02*
X109220000Y-113262500D01*
X117877500Y-121920000D02*
X109220000Y-113262500D01*
X124460000Y-58420000D02*
X122635000Y-56595000D01*
X109220000Y-113262500D02*
X101535000Y-113262500D01*
%TO.N,Net-(C2-Pad1)*%
X119950000Y-101600000D02*
X119315000Y-100965000D01*
X111760000Y-117877500D02*
X111760000Y-119380000D01*
X109220000Y-115337500D02*
X111760000Y-117877500D01*
X121920000Y-101600000D02*
X119950000Y-101600000D01*
%TO.N,Net-(D1-Pad1)*%
X132902500Y-73660000D02*
X132902500Y-90722500D01*
X132902500Y-90722500D02*
X133620000Y-91440000D01*
%TO.N,+9V*%
X115725000Y-102325000D02*
X122220305Y-102325000D01*
X135877500Y-73660000D02*
X120637500Y-58420000D01*
X92980000Y-81280000D02*
X92980000Y-88624500D01*
X124460000Y-100085305D02*
X124460000Y-96520000D01*
X92980000Y-88624500D02*
X108495500Y-104140000D01*
X120637500Y-58420000D02*
X119380000Y-58420000D01*
X135877500Y-73660000D02*
X135877500Y-77482500D01*
X111760000Y-104140000D02*
X114365000Y-101535000D01*
X114365000Y-101535000D02*
X114365000Y-100965000D01*
X116840000Y-94680000D02*
X119315000Y-97155000D01*
X135877500Y-77482500D02*
X134620000Y-78740000D01*
X122220305Y-102325000D02*
X124460000Y-100085305D01*
X114365000Y-100965000D02*
X115725000Y-102325000D01*
X116840000Y-93980000D02*
X116840000Y-94680000D01*
%TO.N,Net-(D2-Pad2)*%
X137395000Y-105915000D02*
X135620000Y-104140000D01*
X137395000Y-121920000D02*
X137395000Y-105915000D01*
%TO.N,/pin_7*%
X104140000Y-83820000D02*
X97520000Y-83820000D01*
X120615000Y-97501751D02*
X120615000Y-95215000D01*
X119315000Y-98425000D02*
X119691751Y-98425000D01*
X120615000Y-95215000D02*
X116840000Y-91440000D01*
X119691751Y-98425000D02*
X120615000Y-97501751D01*
X97520000Y-83820000D02*
X94980000Y-81280000D01*
%TO.N,/pin_3*%
X135620000Y-91440000D02*
X133620000Y-93440000D01*
X113665000Y-99695000D02*
X114365000Y-99695000D01*
X111760000Y-101600000D02*
X113665000Y-99695000D01*
X133620000Y-104140000D02*
X124460000Y-104140000D01*
X133620000Y-93440000D02*
X133620000Y-104140000D01*
%TD*%
M02*
