%TF.GenerationSoftware,KiCad,Pcbnew,(6.0.10)*%
%TF.CreationDate,2023-02-17T15:29:09-08:00*%
%TF.ProjectId,Exercise 1 lab 6,45786572-6369-4736-9520-31206c616220,rev?*%
%TF.SameCoordinates,Original*%
%TF.FileFunction,Copper,L1,Top*%
%TF.FilePolarity,Positive*%
%FSLAX46Y46*%
G04 Gerber Fmt 4.6, Leading zero omitted, Abs format (unit mm)*
G04 Created by KiCad (PCBNEW (6.0.10)) date 2023-02-17 15:29:09*
%MOMM*%
%LPD*%
G01*
G04 APERTURE LIST*
G04 Aperture macros list*
%AMRoundRect*
0 Rectangle with rounded corners*
0 $1 Rounding radius*
0 $2 $3 $4 $5 $6 $7 $8 $9 X,Y pos of 4 corners*
0 Add a 4 corners polygon primitive as box body*
4,1,4,$2,$3,$4,$5,$6,$7,$8,$9,$2,$3,0*
0 Add four circle primitives for the rounded corners*
1,1,$1+$1,$2,$3*
1,1,$1+$1,$4,$5*
1,1,$1+$1,$6,$7*
1,1,$1+$1,$8,$9*
0 Add four rect primitives between the rounded corners*
20,1,$1+$1,$2,$3,$4,$5,0*
20,1,$1+$1,$4,$5,$6,$7,0*
20,1,$1+$1,$6,$7,$8,$9,0*
20,1,$1+$1,$8,$9,$2,$3,0*%
G04 Aperture macros list end*
%TA.AperFunction,ComponentPad*%
%ADD10RoundRect,0.250000X-0.350000X-0.625000X0.350000X-0.625000X0.350000X0.625000X-0.350000X0.625000X0*%
%TD*%
%TA.AperFunction,ComponentPad*%
%ADD11O,1.200000X1.750000*%
%TD*%
%TA.AperFunction,ComponentPad*%
%ADD12C,2.400000*%
%TD*%
%TA.AperFunction,ComponentPad*%
%ADD13O,2.400000X2.400000*%
%TD*%
%TA.AperFunction,ComponentPad*%
%ADD14R,1.800000X1.800000*%
%TD*%
%TA.AperFunction,ComponentPad*%
%ADD15C,1.800000*%
%TD*%
%TA.AperFunction,ComponentPad*%
%ADD16C,2.000000*%
%TD*%
%TA.AperFunction,ComponentPad*%
%ADD17C,1.700000*%
%TD*%
%TA.AperFunction,ComponentPad*%
%ADD18C,1.200000*%
%TD*%
%TA.AperFunction,Conductor*%
%ADD19C,0.250000*%
%TD*%
G04 APERTURE END LIST*
D10*
%TO.P,V1,1,Pin_1*%
%TO.N,Net-(R2-Pad2)*%
X84360000Y-106680000D03*
D11*
%TO.P,V1,2,Pin_2*%
%TO.N,Net-(C1-Pad2)*%
X86360000Y-106680000D03*
%TD*%
D12*
%TO.P,R2,1*%
%TO.N,Net-(R2-Pad1)*%
X104140000Y-76200000D03*
D13*
%TO.P,R2,2*%
%TO.N,Net-(R2-Pad2)*%
X83820000Y-76200000D03*
%TD*%
D14*
%TO.P,D1,1,K*%
%TO.N,Net-(C1-Pad2)*%
X175260000Y-106680000D03*
D15*
%TO.P,D1,2,A*%
%TO.N,Net-(D1-Pad2)*%
X177800000Y-106680000D03*
%TD*%
D16*
%TO.P,SW1,*%
%TO.N,*%
X117000000Y-77950000D03*
X117000000Y-71950000D03*
X129000000Y-71950000D03*
X129000000Y-77950000D03*
D17*
%TO.P,SW1,1,A*%
%TO.N,Net-(C1-Pad1)*%
X127000000Y-76200000D03*
%TO.P,SW1,2,B*%
%TO.N,Net-(R2-Pad1)*%
X123000000Y-76200000D03*
%TO.P,SW1,3,C*%
%TO.N,Net-(C1-Pad1)*%
X119000000Y-76200000D03*
%TD*%
D12*
%TO.P,R1,1*%
%TO.N,Net-(C1-Pad1)*%
X157480000Y-76200000D03*
D13*
%TO.P,R1,2*%
%TO.N,Net-(D1-Pad2)*%
X177800000Y-76200000D03*
%TD*%
D18*
%TO.P,C1,1*%
%TO.N,Net-(C1-Pad1)*%
X134620000Y-106680000D03*
%TO.P,C1,2*%
%TO.N,Net-(C1-Pad2)*%
X136620000Y-106680000D03*
%TD*%
D19*
%TO.N,Net-(C1-Pad1)*%
X125825000Y-77375000D02*
X127000000Y-76200000D01*
X127000000Y-76200000D02*
X127000000Y-99060000D01*
X127000000Y-99060000D02*
X134620000Y-106680000D01*
X157480000Y-76200000D02*
X127000000Y-76200000D01*
X120175000Y-77375000D02*
X125825000Y-77375000D01*
X119000000Y-76200000D02*
X120175000Y-77375000D01*
%TO.N,Net-(C1-Pad2)*%
X86360000Y-106680000D02*
X87285000Y-107605000D01*
X137160000Y-106680000D02*
X175260000Y-106680000D01*
X87285000Y-107605000D02*
X136235000Y-107605000D01*
X136235000Y-107605000D02*
X137160000Y-106680000D01*
%TO.N,Net-(D1-Pad2)*%
X177800000Y-106680000D02*
X177800000Y-76200000D01*
%TO.N,Net-(R2-Pad1)*%
X121800000Y-75000000D02*
X123000000Y-76200000D01*
X104140000Y-76200000D02*
X105340000Y-75000000D01*
X105340000Y-75000000D02*
X121800000Y-75000000D01*
%TO.N,Net-(R2-Pad2)*%
X84360000Y-106680000D02*
X83820000Y-106140000D01*
X83820000Y-106140000D02*
X83820000Y-76200000D01*
%TD*%
M02*
