%TF.GenerationSoftware,KiCad,Pcbnew,(6.0.10)*%
%TF.CreationDate,2023-02-17T15:29:09-08:00*%
%TF.ProjectId,Exercise 1 lab 6,45786572-6369-4736-9520-31206c616220,rev?*%
%TF.SameCoordinates,Original*%
%TF.FileFunction,Legend,Top*%
%TF.FilePolarity,Positive*%
%FSLAX46Y46*%
G04 Gerber Fmt 4.6, Leading zero omitted, Abs format (unit mm)*
G04 Created by KiCad (PCBNEW (6.0.10)) date 2023-02-17 15:29:09*
%MOMM*%
%LPD*%
G01*
G04 APERTURE LIST*
%ADD10C,0.150000*%
%ADD11C,0.120000*%
G04 APERTURE END LIST*
D10*
X87671428Y-114157142D02*
X88671428Y-114157142D01*
X89100000Y-115204761D02*
X87671428Y-115204761D01*
X87671428Y-113204761D01*
X89100000Y-113204761D01*
X90385714Y-114157142D02*
X91385714Y-114157142D01*
X91814285Y-115204761D02*
X90385714Y-115204761D01*
X90385714Y-113204761D01*
X91814285Y-113204761D01*
X92957142Y-113395238D02*
X93100000Y-113300000D01*
X93385714Y-113204761D01*
X94100000Y-113204761D01*
X94385714Y-113300000D01*
X94528571Y-113395238D01*
X94671428Y-113585714D01*
X94671428Y-113776190D01*
X94528571Y-114061904D01*
X92814285Y-115204761D01*
X94671428Y-115204761D01*
X96528571Y-113204761D02*
X96814285Y-113204761D01*
X97100000Y-113300000D01*
X97242857Y-113395238D01*
X97385714Y-113585714D01*
X97528571Y-113966666D01*
X97528571Y-114442857D01*
X97385714Y-114823809D01*
X97242857Y-115014285D01*
X97100000Y-115109523D01*
X96814285Y-115204761D01*
X96528571Y-115204761D01*
X96242857Y-115109523D01*
X96100000Y-115014285D01*
X95957142Y-114823809D01*
X95814285Y-114442857D01*
X95814285Y-113966666D01*
X95957142Y-113585714D01*
X96100000Y-113395238D01*
X96242857Y-113300000D01*
X96528571Y-113204761D01*
X100385714Y-115204761D02*
X98671428Y-115204761D01*
X99528571Y-115204761D02*
X99528571Y-113204761D01*
X99242857Y-113490476D01*
X98957142Y-113680952D01*
X98671428Y-113776190D01*
X105385714Y-115204761D02*
X103957142Y-115204761D01*
X103957142Y-113204761D01*
X107671428Y-115204761D02*
X107671428Y-114157142D01*
X107528571Y-113966666D01*
X107242857Y-113871428D01*
X106671428Y-113871428D01*
X106385714Y-113966666D01*
X107671428Y-115109523D02*
X107385714Y-115204761D01*
X106671428Y-115204761D01*
X106385714Y-115109523D01*
X106242857Y-114919047D01*
X106242857Y-114728571D01*
X106385714Y-114538095D01*
X106671428Y-114442857D01*
X107385714Y-114442857D01*
X107671428Y-114347619D01*
X109099999Y-115204761D02*
X109099999Y-113204761D01*
X109099999Y-113966666D02*
X109385714Y-113871428D01*
X109957142Y-113871428D01*
X110242857Y-113966666D01*
X110385714Y-114061904D01*
X110528571Y-114252380D01*
X110528571Y-114823809D01*
X110385714Y-115014285D01*
X110242857Y-115109523D01*
X109957142Y-115204761D01*
X109385714Y-115204761D01*
X109099999Y-115109523D01*
X115385714Y-113204761D02*
X114814285Y-113204761D01*
X114528571Y-113300000D01*
X114385714Y-113395238D01*
X114099999Y-113680952D01*
X113957142Y-114061904D01*
X113957142Y-114823809D01*
X114099999Y-115014285D01*
X114242857Y-115109523D01*
X114528571Y-115204761D01*
X115099999Y-115204761D01*
X115385714Y-115109523D01*
X115528571Y-115014285D01*
X115671428Y-114823809D01*
X115671428Y-114347619D01*
X115528571Y-114157142D01*
X115385714Y-114061904D01*
X115099999Y-113966666D01*
X114528571Y-113966666D01*
X114242857Y-114061904D01*
X114099999Y-114157142D01*
X113957142Y-114347619D01*
%TO.C,V1*%
X84550476Y-103232380D02*
X84883809Y-104232380D01*
X85217142Y-103232380D01*
X86074285Y-104232380D02*
X85502857Y-104232380D01*
X85788571Y-104232380D02*
X85788571Y-103232380D01*
X85693333Y-103375238D01*
X85598095Y-103470476D01*
X85502857Y-103518095D01*
%TO.C,R2*%
X93813333Y-80272380D02*
X93480000Y-79796190D01*
X93241904Y-80272380D02*
X93241904Y-79272380D01*
X93622857Y-79272380D01*
X93718095Y-79320000D01*
X93765714Y-79367619D01*
X93813333Y-79462857D01*
X93813333Y-79605714D01*
X93765714Y-79700952D01*
X93718095Y-79748571D01*
X93622857Y-79796190D01*
X93241904Y-79796190D01*
X94194285Y-79367619D02*
X94241904Y-79320000D01*
X94337142Y-79272380D01*
X94575238Y-79272380D01*
X94670476Y-79320000D01*
X94718095Y-79367619D01*
X94765714Y-79462857D01*
X94765714Y-79558095D01*
X94718095Y-79700952D01*
X94146666Y-80272380D01*
X94765714Y-80272380D01*
%TO.C,D1*%
X175791904Y-103172380D02*
X175791904Y-102172380D01*
X176030000Y-102172380D01*
X176172857Y-102220000D01*
X176268095Y-102315238D01*
X176315714Y-102410476D01*
X176363333Y-102600952D01*
X176363333Y-102743809D01*
X176315714Y-102934285D01*
X176268095Y-103029523D01*
X176172857Y-103124761D01*
X176030000Y-103172380D01*
X175791904Y-103172380D01*
X177315714Y-103172380D02*
X176744285Y-103172380D01*
X177030000Y-103172380D02*
X177030000Y-102172380D01*
X176934761Y-102315238D01*
X176839523Y-102410476D01*
X176744285Y-102458095D01*
%TO.C,SW1*%
X121666666Y-79554761D02*
X121809523Y-79602380D01*
X122047619Y-79602380D01*
X122142857Y-79554761D01*
X122190476Y-79507142D01*
X122238095Y-79411904D01*
X122238095Y-79316666D01*
X122190476Y-79221428D01*
X122142857Y-79173809D01*
X122047619Y-79126190D01*
X121857142Y-79078571D01*
X121761904Y-79030952D01*
X121714285Y-78983333D01*
X121666666Y-78888095D01*
X121666666Y-78792857D01*
X121714285Y-78697619D01*
X121761904Y-78650000D01*
X121857142Y-78602380D01*
X122095238Y-78602380D01*
X122238095Y-78650000D01*
X122571428Y-78602380D02*
X122809523Y-79602380D01*
X123000000Y-78888095D01*
X123190476Y-79602380D01*
X123428571Y-78602380D01*
X124333333Y-79602380D02*
X123761904Y-79602380D01*
X124047619Y-79602380D02*
X124047619Y-78602380D01*
X123952380Y-78745238D01*
X123857142Y-78840476D01*
X123761904Y-78888095D01*
%TO.C,R1*%
X167473333Y-73032380D02*
X167140000Y-72556190D01*
X166901904Y-73032380D02*
X166901904Y-72032380D01*
X167282857Y-72032380D01*
X167378095Y-72080000D01*
X167425714Y-72127619D01*
X167473333Y-72222857D01*
X167473333Y-72365714D01*
X167425714Y-72460952D01*
X167378095Y-72508571D01*
X167282857Y-72556190D01*
X166901904Y-72556190D01*
X168425714Y-73032380D02*
X167854285Y-73032380D01*
X168140000Y-73032380D02*
X168140000Y-72032380D01*
X168044761Y-72175238D01*
X167949523Y-72270476D01*
X167854285Y-72318095D01*
%TO.C,C1*%
X135453333Y-103287142D02*
X135405714Y-103334761D01*
X135262857Y-103382380D01*
X135167619Y-103382380D01*
X135024761Y-103334761D01*
X134929523Y-103239523D01*
X134881904Y-103144285D01*
X134834285Y-102953809D01*
X134834285Y-102810952D01*
X134881904Y-102620476D01*
X134929523Y-102525238D01*
X135024761Y-102430000D01*
X135167619Y-102382380D01*
X135262857Y-102382380D01*
X135405714Y-102430000D01*
X135453333Y-102477619D01*
X136405714Y-103382380D02*
X135834285Y-103382380D01*
X136120000Y-103382380D02*
X136120000Y-102382380D01*
X136024761Y-102525238D01*
X135929523Y-102620476D01*
X135834285Y-102668095D01*
D11*
%TO.C,V1*%
X88420000Y-107480000D02*
X87810000Y-107480000D01*
X87810000Y-105480000D02*
X85860000Y-105480000D01*
X82300000Y-109590000D02*
X88420000Y-109590000D01*
X82000000Y-104570000D02*
X82000000Y-105820000D01*
X82300000Y-106180000D02*
X82910000Y-106180000D01*
X84860000Y-105480000D02*
X82910000Y-105480000D01*
X82910000Y-108980000D02*
X87810000Y-108980000D01*
X84060000Y-104670000D02*
X83760000Y-104670000D01*
X83760000Y-104670000D02*
X83760000Y-104870000D01*
X87810000Y-108980000D02*
X87810000Y-105480000D01*
X82300000Y-107480000D02*
X82910000Y-107480000D01*
X85360000Y-108980000D02*
X85360000Y-108480000D01*
X88420000Y-104870000D02*
X82300000Y-104870000D01*
X84860000Y-104870000D02*
X84860000Y-105480000D01*
X82910000Y-105480000D02*
X82910000Y-108980000D01*
X85460000Y-108480000D02*
X85460000Y-108980000D01*
X83250000Y-104570000D02*
X82000000Y-104570000D01*
X84060000Y-104870000D02*
X84060000Y-104670000D01*
X85260000Y-108980000D02*
X85260000Y-108480000D01*
X88420000Y-109590000D02*
X88420000Y-104870000D01*
X85260000Y-108480000D02*
X85460000Y-108480000D01*
X85860000Y-105480000D02*
X85860000Y-104870000D01*
X84060000Y-104770000D02*
X83760000Y-104770000D01*
X82300000Y-104870000D02*
X82300000Y-109590000D01*
X88420000Y-106180000D02*
X87810000Y-106180000D01*
%TO.C,R2*%
X85260000Y-76200000D02*
X86110000Y-76200000D01*
X101850000Y-78820000D02*
X101850000Y-73580000D01*
X101850000Y-73580000D02*
X86110000Y-73580000D01*
X86110000Y-78820000D02*
X101850000Y-78820000D01*
X86110000Y-73580000D02*
X86110000Y-78820000D01*
X102700000Y-76200000D02*
X101850000Y-76200000D01*
%TO.C,D1*%
X173970000Y-105135000D02*
X173970000Y-108225000D01*
X179520000Y-106680462D02*
G75*
G03*
X173970000Y-105135170I-2990000J462D01*
G01*
X173970000Y-108224830D02*
G75*
G03*
X179520000Y-106679538I2560000J1544830D01*
G01*
X179030000Y-106680000D02*
G75*
G03*
X179030000Y-106680000I-2500000J0D01*
G01*
%TO.C,SW1*%
X130300000Y-79250000D02*
X129000000Y-79250000D01*
X118050000Y-71600000D02*
X127950000Y-71600000D01*
X130000000Y-72350000D02*
X130000000Y-77550000D01*
X127950000Y-78300000D02*
X118050000Y-78300000D01*
X130300000Y-77950000D02*
X130300000Y-79250000D01*
X116000000Y-77550000D02*
X116000000Y-72350000D01*
%TO.C,R1*%
X176360000Y-76200000D02*
X175510000Y-76200000D01*
X158920000Y-76200000D02*
X159770000Y-76200000D01*
X159770000Y-73580000D02*
X159770000Y-78820000D01*
X175510000Y-73580000D02*
X159770000Y-73580000D01*
X159770000Y-78820000D02*
X175510000Y-78820000D01*
X175510000Y-78820000D02*
X175510000Y-73580000D01*
%TO.C,C1*%
X138240000Y-106680000D02*
G75*
G03*
X138240000Y-106680000I-2620000J0D01*
G01*
%TD*%
M02*
